<?xml version="1.0" encoding="utf-8"?>
<!-- Generator: Adobe Illustrator 26.4.1, SVG Export Plug-In . SVG Version: 6.00 Build 0)  -->
<svg version="1.1" id="Layer_1" xmlns="http://www.w3.org/2000/svg" xmlns:xlink="http://www.w3.org/1999/xlink" x="0px" y="0px"
	 viewBox="0 0 350 350" style="enable-background:new 0 0 350 350;" xml:space="preserve">
<g>
	<path d="M323.9,172.81c-13.64-27.21-34.47-50.17-60.26-66.43c-26.5-16.71-57.16-25.53-88.64-25.53c-31.48,0-62.13,8.83-88.64,25.53
		c-25.79,16.25-46.63,39.22-60.26,66.43L25,175l1.1,2.19c13.64,27.21,34.48,50.17,60.27,66.43c26.5,16.71,57.15,25.53,88.64,25.53
		c31.48,0,62.13-8.83,88.64-25.53c25.79-16.25,46.63-39.22,60.26-66.43L325,175L323.9,172.81z M175,243.09
		c-37.54,0-68.09-30.54-68.09-68.09c0-37.55,30.54-68.09,68.09-68.09c37.55,0,68.09,30.54,68.09,68.09
		C243.09,212.54,212.54,243.09,175,243.09z"/>
	<circle cx="175" cy="175" r="38.99"/>
</g>
</svg>
