<?xml version="1.0" encoding="utf-8"?>
<!-- Generator: Adobe Illustrator 26.4.1, SVG Export Plug-In . SVG Version: 6.00 Build 0)  -->
<svg version="1.1" id="Layer_1" xmlns="http://www.w3.org/2000/svg" xmlns:xlink="http://www.w3.org/1999/xlink" x="0px" y="0px"
	 viewBox="0 0 350 350" style="enable-background:new 0 0 350 350;" xml:space="preserve">
<g>
	<path d="M254.69,160.94h-65.62v-75c0-7.77-6.29-14.06-14.06-14.06v0c-7.77,0-14.06,6.3-14.06,14.06V175
		c0,7.77,6.3,14.06,14.06,14.06h79.69c7.77,0,14.06-6.29,14.06-14.06C268.75,167.24,262.45,160.94,254.69,160.94z"/>
	<path d="M175,25C92.32,25,25,92.32,25,175s67.32,150,150,150s150-67.32,150-150S257.68,25,175,25z M175,296.88
		c-67.48,0-121.88-54.4-121.88-121.88c0-67.47,54.4-121.88,121.88-121.88c67.48,0,121.88,54.4,121.88,121.88
		C296.88,242.48,242.48,296.88,175,296.88z"/>
</g>
</svg>
