<?xml version="1.0" encoding="utf-8"?>
<!-- Generator: Adobe Illustrator 26.4.1, SVG Export Plug-In . SVG Version: 6.00 Build 0)  -->
<svg version="1.1" id="Layer_1" xmlns="http://www.w3.org/2000/svg" xmlns:xlink="http://www.w3.org/1999/xlink" x="0px" y="0px"
	 viewBox="0 0 350 350" style="enable-background:new 0 0 350 350;" xml:space="preserve">
<g>
	<path d="M225,242.34v-13.75c18.33-10.36,33.33-36.15,33.33-61.93c0-41.41,0-75-50-75s-50,33.59-50,75c0,25.78,15,51.61,33.33,61.93
		v13.75c-56.56,4.64-100,32.4-100,65.99H325C325,274.74,281.56,246.98,225,242.34z"/>
	<path d="M110.21,248.8L110.21,248.8c14.42-9.43,32.29-16.56,52.03-20.94c-3.91-4.64-7.5-9.79-10.52-15.36
		c-7.97-14.43-12.14-30.26-12.14-45.83c0-22.4,0-43.59,7.97-60.89c7.76-16.82,21.67-27.19,41.46-31.09
		c-4.38-19.95-16.15-33.02-47.34-33.02c-50,0-50,33.59-50,75c0,25.78,15,51.61,33.33,61.93v13.75c-56.56,4.64-100,32.4-100,65.99
		h72.66C101.46,254.95,105.63,251.77,110.21,248.8z"/>
</g>
</svg>
