<?xml version="1.0" encoding="utf-8"?>
<!-- Generator: Adobe Illustrator 26.4.1, SVG Export Plug-In . SVG Version: 6.00 Build 0)  -->
<svg version="1.1" id="Layer_1" xmlns="http://www.w3.org/2000/svg" xmlns:xlink="http://www.w3.org/1999/xlink" x="0px" y="0px"
	 viewBox="0 0 350 350" style="enable-background:new 0 0 350 350;" xml:space="preserve">
<path d="M323.67,310.13c-1.77-3.06-5.06-4.96-8.59-4.96h-14c-2.26,0-4.09-1.83-4.09-4.09V34.91c0-2.65-1.03-5.14-2.91-7.01
	c-1.88-1.87-4.37-2.91-7.01-2.91H62.93c-2.65,0-5.14,1.03-7.01,2.91c-1.88,1.87-2.91,4.36-2.91,7.01v266.16
	c0,2.26-1.83,4.09-4.09,4.09H34.92c-3.53,0-6.82,1.9-8.59,4.96c-1.77,3.06-1.77,6.86,0,9.92c1.77,3.06,5.06,4.96,8.59,4.96h280.17
	c3.53,0,6.82-1.9,8.59-4.96C325.44,316.99,325.44,313.19,323.67,310.13z M165.09,90.95c0-3.53,1.9-6.82,4.96-8.59
	c1.53-0.88,3.25-1.33,4.96-1.33c1.72,0,3.43,0.44,4.96,1.33c3.06,1.76,4.96,5.06,4.96,8.59v14.01c0,3.53-1.9,6.82-4.96,8.59
	c-3.06,1.76-6.86,1.77-9.92,0c-3.06-1.77-4.96-5.06-4.96-8.59V90.95z M184.92,160.99V175c0,3.53-1.9,6.82-4.96,8.59
	c-3.06,1.77-6.86,1.77-9.92,0c-3.06-1.77-4.96-5.06-4.96-8.59v-14.01c0-3.53,1.9-6.82,4.96-8.59c1.53-0.88,3.25-1.33,4.96-1.33
	c1.72,0,3.43,0.44,4.96,1.32C183.03,154.17,184.92,157.46,184.92,160.99z M109.05,90.95c0-3.53,1.9-6.82,4.96-8.59
	c1.53-0.88,3.24-1.32,4.96-1.32c1.72,0,3.43,0.44,4.96,1.32c3.06,1.77,4.96,5.06,4.96,8.59v14.01c0,3.53-1.9,6.82-4.96,8.59
	c-3.06,1.77-6.86,1.77-9.92,0c-3.06-1.77-4.96-5.06-4.96-8.59V90.95z M123.93,183.59c-3.06,1.77-6.86,1.77-9.92,0
	c-3.06-1.77-4.96-5.06-4.96-8.59v-14.01c0-3.53,1.9-6.82,4.96-8.59c1.53-0.88,3.24-1.32,4.96-1.32c1.72,0,3.43,0.44,4.96,1.32
	c3.06,1.77,4.96,5.06,4.96,8.59V175C128.89,178.53,126.99,181.82,123.93,183.59z M221.12,301.08c0,2.26-1.83,4.09-4.09,4.09h-84.05
	c-2.26,0-4.09-1.83-4.09-4.09v-56.03c0-2.26,1.83-4.09,4.09-4.09h84.05c2.26,0,4.09,1.83,4.09,4.09V301.08z M221.12,90.95
	c0-3.53,1.9-6.82,4.96-8.59c1.53-0.88,3.24-1.32,4.96-1.32c1.72,0,3.43,0.44,4.96,1.33c3.06,1.77,4.96,5.06,4.96,8.59c0,0,0,0,0,0
	l0,14.01c0,3.53-1.9,6.82-4.96,8.59c-3.06,1.77-6.86,1.76-9.92,0c-3.06-1.77-4.96-5.06-4.96-8.59V90.95z M236,183.59
	c-3.06,1.77-6.86,1.77-9.92,0c-3.06-1.77-4.96-5.06-4.96-8.59v-14.01c0-3.53,1.9-6.82,4.96-8.59c1.53-0.88,3.24-1.32,4.96-1.32
	c1.72,0,3.43,0.44,4.96,1.32c3.06,1.77,4.96,5.06,4.96,8.59c0,0,0,0,0,0l0,14.01C240.96,178.53,239.06,181.82,236,183.59z"/>
</svg>
