<?xml version="1.0" encoding="utf-8"?>
<!-- Generator: Adobe Illustrator 26.4.1, SVG Export Plug-In . SVG Version: 6.00 Build 0)  -->
<svg version="1.1" id="Layer_1" xmlns="http://www.w3.org/2000/svg" xmlns:xlink="http://www.w3.org/1999/xlink" x="0px" y="0px"
	 viewBox="0 0 350 350" style="enable-background:new 0 0 350 350;" xml:space="preserve">
<path d="M290.83,108.45L290.83,108.45c-9.49,2.22-17.4,9.81-19.93,18.98c-3.16,10.76,0.63,21.51,8.54,28.47
	c-10.13,14.24-26.58,22.78-44.29,22.78c-20.88,0-39.87-12.02-48.72-30.69c9.17-4.43,15.5-13.92,15.5-24.36
	c0-17.72-16.77-31.64-35.12-26.58c-9.49,2.53-17.08,10.76-19.3,20.25c-2.85,13.92,4.43,26.58,16.45,31.32
	c-9.17,18.04-27.84,29.74-48.41,29.74c-17.72,0-34.49-8.86-44.61-23.41c5.69-5.06,9.17-12.34,9.17-19.93
	c0-17.72-16.45-31.32-34.8-26.58c-9.49,2.53-17.4,10.44-19.62,20.25c-3.8,17.08,8.54,32.59,24.68,33.86l33.54,84.48
	c1.58,4.11,5.69,6.96,10.13,6.96h162.94c4.43,0,8.54-2.85,10.13-6.96l33.53-84.48c13.6-1.58,24.36-13.29,24.36-27.53
	C325,117.94,308.86,104.34,290.83,108.45z"/>
</svg>
