<?xml version="1.0" encoding="utf-8"?>
<!-- Generator: Adobe Illustrator 26.4.1, SVG Export Plug-In . SVG Version: 6.00 Build 0)  -->
<svg version="1.1" id="Layer_1" xmlns="http://www.w3.org/2000/svg" xmlns:xlink="http://www.w3.org/1999/xlink" x="0px" y="0px"
	 viewBox="0 0 350 350" style="enable-background:new 0 0 350 350;" xml:space="preserve">
<path d="M322.89,191.17l-18.75-18.75c-3.06-3.06-7.42-4.82-11.96-4.82c0,0,0,0,0,0c-4.54,0-8.9,1.76-11.95,4.82l-15.79,15.79
	c4.74-13.42,7.15-27.32,7.15-41.33c0-68.77-55.95-124.72-124.72-124.72S22.16,78.11,22.16,146.88c0,26.08,8.03,51.09,23.22,72.35
	c1.41,1.97,3.7,3.15,6.13,3.15l0,0c1.11,0,2.19-0.26,3.18-0.72c-0.09,0.14-0.19,0.26-0.28,0.4c-1.9,2.9-1.59,6.7,0.75,9.25
	c23.59,25.61,57.02,40.3,91.72,40.3c14.06,0,27.93-2.38,41.24-7.06l-6.32,6.32c-2.33,2.32-3.95,5.3-4.57,8.4l-9.54,39.28
	c-0.62,2.54,0.14,5.27,2,7.11c1.43,1.42,3.32,2.2,5.32,2.2c0.61,0,1.21-0.07,1.78-0.21l39.09-9.5c3.27-0.67,6.24-2.26,8.58-4.61
	l98.44-98.43c3.19-3.19,4.95-7.44,4.95-11.96C327.84,198.61,326.08,194.36,322.89,191.17z M58.97,215.66
	c0.21-1.85-0.26-3.68-1.35-5.2c-13.35-18.68-20.4-40.66-20.4-63.58c0-60.46,49.19-109.66,109.66-109.66s109.66,49.19,109.66,109.66
	c0,12.49-2.18,24.9-6.47,36.86c-0.68,1.89-0.58,3.94,0.27,5.76c0.86,1.82,2.37,3.19,4.26,3.87c1.47,0.53,3.03,0.59,4.51,0.18
	l-25.54,25.54c0.62-2.28,0.16-4.82-1.45-6.77c0,0,0,0,0,0c-13.86-16.74-31.86-28.79-52.37-35.14
	c16.33-10.92,26.23-29.16,26.23-49.04c0-32.58-26.51-59.09-59.09-59.09s-59.09,26.51-59.09,59.09c0,19.88,9.89,38.11,26.21,49.03
	C92.07,183.96,72.94,197.37,58.97,215.66z M146.88,172.16c-24.28,0-44.03-19.75-44.03-44.03c0-24.28,19.75-44.03,44.03-44.03
	s44.03,19.75,44.03,44.03C190.91,152.4,171.15,172.16,146.88,172.16z M183.65,250.15c-11.85,4.24-24.23,6.38-36.77,6.38
	c-28.33,0-56.04-11.31-76.42-31.12c18.02-23.96,46.4-38.19,76.42-38.19c28.54,0,55.38,12.65,73.62,34.7
	c1.94,2.34,5.01,3.2,7.77,2.46l-34.81,34.81c0.4-1.47,0.35-3.03-0.18-4.5c-0.68-1.9-2.05-3.41-3.87-4.27
	C187.59,249.57,185.54,249.47,183.65,250.15z M312.24,204.43c-0.03,0.03-0.05,0.05-0.08,0.08l-98.35,98.35
	c-0.19,0.19-0.48,0.41-1.14,0.55c-0.03,0.01-0.07,0.01-0.1,0.02l-27.32,6.64l3.08-12.67l4.79,4.79c1.42,1.43,3.31,2.22,5.33,2.22
	c2.01,0,3.9-0.78,5.33-2.21c1.42-1.42,2.21-3.31,2.21-5.33c0-2.01-0.78-3.9-2.21-5.32l-10.68-10.68l73.72-73.73l15.37,15.37
	c1.42,1.42,3.31,2.21,5.32,2.21c2.01,0,3.9-0.78,5.33-2.21c1.42-1.42,2.21-3.32,2.21-5.33s-0.78-3.9-2.21-5.32l-15.37-15.37
	l13.42-13.42c0.71-0.71,1.9-0.71,2.61,0l18.75,18.75c0.35,0.36,0.54,0.81,0.54,1.31S312.59,204.07,312.24,204.43z"/>
</svg>
