<?xml version="1.0" encoding="utf-8"?>
<!-- Generator: Adobe Illustrator 26.4.1, SVG Export Plug-In . SVG Version: 6.00 Build 0)  -->
<svg version="1.1" id="Layer_1" xmlns="http://www.w3.org/2000/svg" xmlns:xlink="http://www.w3.org/1999/xlink" x="0px" y="0px"
	 viewBox="0 0 350 350" style="enable-background:new 0 0 350 350;" xml:space="preserve">
<g>
	<path d="M123.93,152.4c-1.53-0.88-3.24-1.32-4.96-1.32c-1.72,0-3.43,0.44-4.96,1.32c-3.06,1.77-4.96,5.06-4.96,8.59V175
		c0,3.53,1.9,6.82,4.96,8.59c3.06,1.77,6.86,1.77,9.92,0c3.06-1.77,4.96-5.06,4.96-8.59v-14.01
		C128.89,157.46,126.99,154.17,123.93,152.4z"/>
	<path d="M240.96,160.99c0-3.53-1.9-6.82-4.96-8.59c-1.53-0.88-3.24-1.32-4.96-1.32c-1.72,0-3.43,0.44-4.96,1.32
		c-3.06,1.77-4.96,5.06-4.96,8.59V175c0,3.53,1.9,6.82,4.96,8.59c3.06,1.77,6.86,1.77,9.92,0c3.06-1.77,4.96-5.06,4.96-8.59
		L240.96,160.99C240.96,160.99,240.96,160.99,240.96,160.99z"/>
	<path d="M170.04,113.54c3.06,1.77,6.86,1.76,9.92,0c3.06-1.77,4.96-5.06,4.96-8.59V90.95c0-3.53-1.9-6.82-4.96-8.59
		c-1.53-0.88-3.25-1.33-4.96-1.33c-1.71,0-3.43,0.44-4.96,1.33c-3.06,1.77-4.96,5.06-4.96,8.59v14.01
		C165.09,108.49,166.99,111.78,170.04,113.54z"/>
	<path d="M323.67,310.13c-1.77-3.06-5.06-4.96-8.59-4.96h-14c-2.26,0-4.09-1.83-4.09-4.09V34.91c0-2.65-1.03-5.14-2.91-7.01
		c-1.88-1.87-4.37-2.91-7.01-2.91H62.93c-2.65,0-5.14,1.03-7.01,2.91c-1.88,1.87-2.91,4.36-2.91,7.01v266.16
		c0,2.26-1.83,4.09-4.09,4.09H34.92c-3.53,0-6.82,1.9-8.59,4.96c-1.77,3.06-1.77,6.86,0,9.92c1.77,3.06,5.06,4.96,8.59,4.96h280.17
		c3.53,0,6.82-1.9,8.59-4.96C325.44,316.99,325.44,313.19,323.67,310.13z M221.12,301.08c0,2.26-1.83,4.09-4.09,4.09h-84.05
		c-2.26,0-4.09-1.83-4.09-4.09v-56.03c0-2.26,1.83-4.09,4.09-4.09h84.05c2.26,0,4.09,1.83,4.09,4.09V301.08z M277.16,301.08
		c0,2.26-1.83,4.09-4.09,4.09h-28.02c-2.26,0-4.09-1.83-4.09-4.09v-70.05c0-2.61-1.06-5.16-2.91-7.01
		c-1.87-1.87-4.36-2.91-7.01-2.91H118.98c-2.65,0-5.14,1.03-7.02,2.91c-1.85,1.85-2.91,4.4-2.91,7.01v70.05
		c0,2.26-1.83,4.09-4.09,4.09H76.95c-2.26,0-4.09-1.83-4.09-4.09V48.92c0-2.26,1.83-4.09,4.09-4.09h196.12
		c2.26,0,4.09,1.83,4.09,4.09V301.08z"/>
	<path d="M179.97,152.4c-1.53-0.88-3.25-1.32-4.96-1.32c-1.72,0-3.43,0.44-4.96,1.33c-3.06,1.76-4.96,5.06-4.96,8.59V175
		c0,3.53,1.9,6.82,4.96,8.59c3.06,1.77,6.86,1.77,9.92,0c3.06-1.77,4.96-5.06,4.96-8.59v-14.01
		C184.92,157.46,183.03,154.17,179.97,152.4z"/>
	<path d="M114.01,113.54c3.06,1.77,6.86,1.77,9.92,0c3.06-1.77,4.96-5.06,4.96-8.59V90.95c0-3.53-1.9-6.82-4.96-8.59
		c-1.53-0.88-3.24-1.32-4.96-1.32c-1.72,0-3.43,0.44-4.96,1.32c-3.06,1.77-4.96,5.06-4.96,8.59v14.01
		C109.05,108.49,110.95,111.78,114.01,113.54z"/>
	<path d="M226.08,113.54c3.06,1.77,6.85,1.77,9.92,0c3.06-1.77,4.96-5.06,4.96-8.59l0-14.01c0,0,0,0,0,0c0-3.53-1.9-6.82-4.96-8.59
		c-1.53-0.88-3.24-1.33-4.96-1.33c-1.71,0-3.43,0.44-4.96,1.32c-3.06,1.77-4.96,5.06-4.96,8.59v14.01
		C221.12,108.49,223.02,111.78,226.08,113.54z"/>
</g>
</svg>
