<?xml version="1.0" encoding="utf-8"?>
<!-- Generator: Adobe Illustrator 26.4.1, SVG Export Plug-In . SVG Version: 6.00 Build 0)  -->
<svg version="1.1" id="Layer_1" xmlns="http://www.w3.org/2000/svg" xmlns:xlink="http://www.w3.org/1999/xlink" x="0px" y="0px"
	 viewBox="0 0 350 350" style="enable-background:new 0 0 350 350;" xml:space="preserve">
<g>
	<path d="M270.03,176.17v-46.2h-0.01c0-0.1,0-0.19,0-0.25c-0.01-0.44-0.06-0.89-0.14-1.35c-0.01-0.05-0.04-0.25-0.05-0.3
		c-0.1-0.45-0.24-0.9-0.43-1.38c-0.01-0.04-0.1-0.25-0.12-0.28c-0.19-0.42-0.41-0.83-0.64-1.19c-0.02-0.03-0.16-0.24-0.18-0.27
		c-0.27-0.39-0.58-0.77-1.1-1.29c-0.14-0.13-0.27-0.26-0.41-0.37L153.04,27.05c-1.56-1.32-3.55-2.05-5.6-2.05H33.67
		C28.89,25,25,28.89,25,33.67v282.66c0,4.78,3.89,8.67,8.67,8.67l227.7,0c4.78,0,8.67-3.89,8.67-8.68l0-22.52
		c31.01-2.66,54.96-28.04,54.96-58.81C325,204.22,301.05,178.82,270.03,176.17z M156.2,52.42l81.46,68.82H156.2V52.42z
		 M252.7,307.65H42.35V42.34h96.5v87.57c0,4.78,3.89,8.67,8.67,8.67h105.16v38.55c-28.1,5.56-48.27,29.57-48.27,57.86
		c0,28.29,20.18,52.29,48.28,57.85V307.65z M264.71,276.68c-23.68,0-42.95-18.7-42.95-41.7c0-23,19.27-41.71,42.95-41.71
		c11.47,0,22.25,4.35,30.38,12.25c8.1,7.88,12.57,18.34,12.57,29.45C307.65,257.98,288.39,276.68,264.71,276.68z"/>
	<path d="M284.68,226.32h-11.29v-11.29c0-4.78-3.89-8.67-8.67-8.67c-4.78,0-8.67,3.89-8.67,8.67v11.29h-11.29
		c-4.78,0-8.67,3.89-8.67,8.67c0,4.78,3.89,8.67,8.67,8.67h11.29v11.29c0,4.78,3.89,8.67,8.67,8.67c4.78,0,8.67-3.89,8.67-8.67
		v-11.29h11.29c4.78,0,8.67-3.89,8.67-8.67C293.36,230.21,289.47,226.32,284.68,226.32z"/>
	<path d="M181.59,168.61H83.67c-4.78,0-8.67,3.89-8.67,8.67s3.89,8.67,8.67,8.67h97.92c4.78,0,8.67-3.89,8.67-8.67
		C190.26,172.5,186.37,168.61,181.59,168.61z"/>
	<path d="M181.59,212.24H83.67c-4.78,0-8.67,3.89-8.67,8.67s3.89,8.67,8.67,8.67h97.92c4.78,0,8.67-3.89,8.67-8.67
		C190.26,216.13,186.37,212.24,181.59,212.24z"/>
	<path d="M181.59,255.85H83.67c-4.78,0-8.67,3.89-8.67,8.67s3.89,8.67,8.67,8.67h97.92c4.78,0,8.67-3.89,8.67-8.67
		C190.26,259.75,186.37,255.85,181.59,255.85z"/>
</g>
</svg>
