<?xml version="1.0" encoding="utf-8"?>
<!-- Generator: Adobe Illustrator 26.4.1, SVG Export Plug-In . SVG Version: 6.00 Build 0)  -->
<svg version="1.1" id="Layer_1" xmlns="http://www.w3.org/2000/svg" xmlns:xlink="http://www.w3.org/1999/xlink" x="0px" y="0px"
	 viewBox="0 0 350 350" style="enable-background:new 0 0 350 350;" xml:space="preserve">
<path d="M301.7,77.05H48.3c-14.64,0-26.11,11.47-26.11,26.11v143.69c0,14.15,11.96,26.11,26.11,26.11h253.4
	c14.15,0,26.11-11.96,26.11-26.11V103.16C327.81,89,315.85,77.05,301.7,77.05z M293.01,92.37l-118.49,99.35L56.94,92.37H293.01z
	 M37.59,248.94c-0.08-0.72-0.08-1.46-0.08-2.1l0-143.69c0-2.4,0.41-4.15,1.44-5.76l85.66,70.92L37.59,248.94z M49.61,257.63
	l86.15-78.9l33.95,28.45c1.46,1.41,3.33,2.18,5.29,2.18s3.83-0.77,5.29-2.18l33.95-28.45l86.15,78.9H49.61z M312.48,246.84
	c0,0.49-0.11,1.16-0.29,1.89l-86.81-80.42l85.38-70.69c1.02,1.75,1.73,3.49,1.73,5.52V246.84z"/>
</svg>
