<?xml version="1.0" encoding="utf-8"?>
<!-- Generator: Adobe Illustrator 26.4.1, SVG Export Plug-In . SVG Version: 6.00 Build 0)  -->
<svg version="1.1" id="Layer_1" xmlns="http://www.w3.org/2000/svg" xmlns:xlink="http://www.w3.org/1999/xlink" x="0px" y="0px"
	 viewBox="0 0 350 350" style="enable-background:new 0 0 350 350;" xml:space="preserve">
<g>
	<path d="M226.65,168.78c-0.12-0.02-0.25-0.02-0.37-0.02h-45.03v-44.87c0-3.44-2.8-6.24-6.24-6.24c-3.44,0-6.24,2.8-6.24,6.24v44.87
		h-44.87c-3.44,0-6.24,2.8-6.24,6.24c0,3.44,2.8,6.24,6.24,6.24h44.87v44.87c0,3.44,2.8,6.24,6.24,6.24c3.44,0,6.24-2.8,6.24-6.24
		v-44.87h44.87c3.44,0,6.24-2.8,6.24-6.24C232.36,171.74,229.84,169.05,226.65,168.78z"/>
	<path d="M307.96,42.04C297,31.07,282.42,25.02,266.91,25h0H83.09C67.58,25.02,53,31.07,42.03,42.03C31.07,53,25.02,67.58,25,83.09
		v183.82c0.02,15.51,6.07,30.09,17.03,41.05C53,318.93,67.58,324.98,83.09,325h183.82c15.51-0.02,30.09-6.07,41.05-17.04
		c10.97-10.97,17.01-25.54,17.04-41.05V83.09C324.98,67.58,318.93,53,307.96,42.04z M312.52,266.9
		c-0.01,12.18-4.75,23.63-13.37,32.24c-8.61,8.61-20.06,13.36-32.24,13.37H83.09c-12.17,0-23.63-4.75-32.24-13.37
		c-8.61-8.61-13.36-20.07-13.37-32.24V83.09c0-12.18,4.75-23.63,13.37-32.24c8.61-8.61,20.06-13.36,32.24-13.37h183.82
		c12.18,0.01,23.63,4.75,32.24,13.37c8.61,8.61,13.36,20.06,13.37,32.24V266.9z"/>
</g>
</svg>
