<?xml version="1.0" encoding="utf-8"?>
<!-- Generator: Adobe Illustrator 26.4.1, SVG Export Plug-In . SVG Version: 6.00 Build 0)  -->
<svg version="1.1" id="Layer_1" xmlns="http://www.w3.org/2000/svg" xmlns:xlink="http://www.w3.org/1999/xlink" x="0px" y="0px"
	 viewBox="0 0 350 350" style="enable-background:new 0 0 350 350;" xml:space="preserve">
<g>
	<path d="M175,198.71c4.59,0,7.92-3.33,7.92-7.92c0-4.59-3.33-7.92-7.92-7.92c-4.59,0-7.92,3.33-7.92,7.92
		C167.08,195.38,170.41,198.71,175,198.71z"/>
	<path d="M306.55,77.62h-92.06V59.24c0-7.27-5.92-13.18-13.18-13.18h-52.62c-7.27,0-13.18,5.92-13.18,13.18v18.39H43.45
		C33.1,77.62,25,85.73,25,96.07v63.14c0,9.62,3.73,19.1,10.52,26.81v99.48c0,10.34,8.1,18.44,18.45,18.44h242.06
		c10.34,0,18.45-8.1,18.45-18.44v-99.48c6.79-7.71,10.52-17.19,10.52-26.81V96.07C325,85.73,316.9,77.62,306.55,77.62z M151.35,61.9
		h47.3v15.73h-47.3V61.9z M298.63,285.51c0,1.68-0.92,2.6-2.6,2.6H53.97c-1.68,0-2.6-0.92-2.6-2.6V196.3
		c4.54,1.62,8.86,2.41,13.13,2.41h81.53v2.6c0,10.34,8.1,18.45,18.45,18.45h21.05c10.34,0,18.45-8.1,18.45-18.45v-2.6h81.53
		c4.27,0,8.59-0.79,13.13-2.41V285.51z M161.87,201.31v-23.65h26.25v23.65c0,1.68-0.92,2.6-2.6,2.6h-21.05
		C162.8,203.92,161.87,202.99,161.87,201.31z M309.16,159.22c0,13.26-10.39,23.65-23.65,23.65h-81.53v-13.13
		c0-4.59-3.33-7.92-7.92-7.92h-42.1c-4.59,0-7.92,3.33-7.92,7.92v13.13H64.5c-13.26,0-23.65-10.39-23.65-23.65V96.07
		c0-1.68,0.92-2.6,2.6-2.6h263.11c1.68,0,2.6,0.92,2.6,2.6V159.22z"/>
</g>
</svg>
