<?xml version="1.0" encoding="utf-8"?>
<!-- Generator: Adobe Illustrator 26.4.1, SVG Export Plug-In . SVG Version: 6.00 Build 0)  -->
<svg version="1.1" id="Layer_1" xmlns="http://www.w3.org/2000/svg" xmlns:xlink="http://www.w3.org/1999/xlink" x="0px" y="0px"
	 viewBox="0 0 350 350" style="enable-background:new 0 0 350 350;" xml:space="preserve">
<path d="M315.28,109.33C315.28,109.33,315.28,109.33,315.28,109.33L181.73,49.47c-4.27-1.93-9.18-1.93-13.47,0L34.72,109.33
	c-5.9,2.65-9.72,8.55-9.72,15.02c0,6.47,3.82,12.36,9.73,15.01l12.07,5.41c-0.24-0.02-0.49-0.04-0.74-0.04
	c-3.99,0-7.24,3.25-7.24,7.24v89.1l-11.69,11.69c-1.35,1.34-2.13,3.21-2.13,5.13v36.84c0,4,3.25,7.25,7.24,7.25h27.63
	c3.99,0,7.24-3.25,7.24-7.25v-9.21c0-3.23-2.13-5.98-5.06-6.91c2.93-0.93,5.06-3.67,5.06-6.91v-13.82c0-1.91-0.78-3.78-2.12-5.12
	l-11.69-11.69v-89.1c0-2.12-0.93-4.03-2.39-5.36l29.34,13.15v88.91c0,23.99,43.72,53.29,94.74,53.29
	c51.02,0,94.74-29.31,94.74-53.29V179.6c0-3.99-3.25-7.24-7.24-7.24c-4,0-7.25,3.25-7.25,7.24v69.08
	c0,11.58-33.89,38.81-80.25,38.81c-46.36,0-80.25-27.23-80.25-38.81v-82.41l73.52,32.96c4.27,1.91,9.25,1.9,13.46,0l133.55-59.87
	c5.91-2.65,9.72-8.55,9.72-15.01C325,117.88,321.18,111.98,315.28,109.33z M52.63,260.89v10.82c0,3.23,2.13,5.98,5.06,6.91
	c-2.93,0.93-5.06,3.67-5.06,6.91v1.97H39.49v-26.6l6.57-6.57L52.63,260.89z M309.35,126.14L175.81,186c-0.49,0.22-1.12,0.22-1.61,0
	L40.66,126.14c-0.71-0.32-1.17-1.03-1.17-1.8c0-0.77,0.46-1.48,1.16-1.8L174.2,62.68c0.25-0.11,0.52-0.17,0.8-0.17
	s0.56,0.06,0.81,0.17l133.54,59.86c0.71,0.32,1.17,1.03,1.17,1.8C310.51,125.12,310.06,125.82,309.35,126.14z"/>
</svg>
