<?xml version="1.0" encoding="utf-8"?>
<!-- Generator: Adobe Illustrator 26.4.1, SVG Export Plug-In . SVG Version: 6.00 Build 0)  -->
<svg version="1.1" id="Layer_1" xmlns="http://www.w3.org/2000/svg" xmlns:xlink="http://www.w3.org/1999/xlink" x="0px" y="0px"
	 viewBox="0 0 350 350" style="enable-background:new 0 0 350 350;" xml:space="preserve">
<g>
	<path d="M290.2,125.95c-1.92-12.01-5.28-23.57-10.73-34.42c-2.98-5.93-6.42-11.67-10.15-17.15c-4.72-6.93-10.14-13.34-16.62-18.76
		c-3.37-2.82-6.61-5.8-10.14-8.41c-8.39-6.21-17.51-11.12-27.29-14.81c-6.6-2.5-13.36-4.47-20.32-5.59
		c-4.66-0.75-9.36-1.45-14.07-1.68c-4.75-0.23-9.56-0.12-14.29,0.33c-5.8,0.56-11.63,1.29-17.32,2.55
		c-10.71,2.37-20.82,6.44-30.39,11.85c-8.31,4.69-16.02,10.23-22.85,16.85c-4.51,4.38-8.79,9.08-12.65,14.05
		c-8.63,11.1-15.04,23.43-19.24,36.88c-3.7,11.85-5.74,23.95-5.69,36.39c0.15,2.92,0.13,5.85,0.5,8.74c0.75,5.98,1.4,12,2.64,17.88
		c2.36,11.2,6.41,21.84,12.1,31.78c2.85,4.98,5.92,9.87,9.34,14.48c5.93,8,12.22,15.73,18.33,23.6c4.18,5.38,8.3,10.8,12.47,16.18
		c5.08,6.55,10.2,13.08,15.29,19.63c3.68,4.72,7.34,9.46,11.02,14.18c5.06,6.5,10.09,13.01,15.2,19.48
		c2.76,3.49,5.34,7.19,8.52,10.25c4.79,4.6,10.53,6.13,17.03,3.52c3.8-1.53,6.54-4.26,8.97-7.36c8.4-10.73,16.75-21.5,25.12-32.26
		c7.17-9.21,14.34-18.42,21.5-27.64c6.65-8.56,13.31-17.12,19.9-25.72c4.9-6.39,9.88-12.74,14.48-19.34
		c5.45-7.81,9.69-16.29,13.05-25.22c4.35-11.56,6.95-23.51,7.52-35.82C291.78,142.22,291.5,134.07,290.2,125.95z M268.67,145.13
		c-0.14,12.63-2.6,24.79-7.43,36.48c-3.01,7.28-6.84,14.15-11.46,20.48c-5.59,7.65-11.66,14.95-17.5,22.42
		c-3.65,4.67-7.25,9.38-10.89,14.06c-5.89,7.58-11.8,15.14-17.68,22.72c-5.3,6.83-10.56,13.7-15.85,20.54
		c-3.95,5.11-7.91,10.2-11.88,15.29c-0.62,0.79-1.15,0.76-1.82-0.11c-3.06-4-6.18-7.95-9.29-11.92
		c-5.55-7.09-11.11-14.18-16.66-21.28c-3.64-4.67-7.25-9.37-10.89-14.04c-5.09-6.55-10.2-13.09-15.29-19.64
		c-3.64-4.68-7.25-9.37-10.89-14.04c-3.53-4.54-7.2-8.97-10.56-13.63c-2.59-3.6-4.92-7.41-7.13-11.25
		c-4.62-8.03-7.82-16.64-9.74-25.68c-0.93-4.37-1.51-8.84-1.94-13.29c-0.36-3.73-0.4-7.5-0.38-11.25c0.04-8.4,1.51-16.6,3.81-24.65
		c2.9-10.19,7.48-19.62,13.59-28.26c4.92-6.97,10.7-13.17,17.32-18.62c5.81-4.79,12.07-8.8,18.84-12.07
		c7.89-3.82,16.14-6.44,24.82-7.82c6.19-0.98,12.39-1.56,18.63-1.27c8,0.37,15.88,1.63,23.59,3.95
		c11.35,3.41,21.58,8.93,30.82,16.24c8.75,6.92,15.99,15.25,21.78,24.8c5.55,9.15,9.61,18.92,11.77,29.43
		c0.88,4.27,1.5,8.59,2.32,13.34C268.68,138.83,268.71,141.98,268.67,145.13z"/>
	<path d="M215.41,120.83c-3.88-6.99-9.11-12.67-15.89-16.97c-9.98-6.32-20.75-8.59-32.38-6.54c-11.43,2.01-20.77,7.74-27.98,16.7
		c-6.98,8.68-10.57,18.7-10.45,29.94c0,1.2-0.05,2.39,0.01,3.59c0.06,1.24,0.14,2.49,0.37,3.7c2.17,12,7.6,22.23,17.21,29.84
		c9.88,7.83,21.15,11.45,33.89,9.97c10.28-1.2,19.04-5.57,26.52-12.55c4.6-4.29,8.08-9.43,10.62-15.21
		c3.52-8.01,4.74-16.32,3.7-25.02C220.29,132.08,218.44,126.28,215.41,120.83z M182.45,166.96c-10.6,3.46-22.87-0.76-28.15-11.37
		c-4.75-9.55-3.93-18.87,2.65-27.28c3.78-4.82,9-7.52,15.24-8.23c8.25-0.94,15.1,1.73,20.53,7.81c4.02,4.5,6.06,9.89,5.78,16.03
		C199.04,153.88,192.56,163.66,182.45,166.96z"/>
</g>
</svg>
