<?xml version="1.0" encoding="utf-8"?>
<!-- Generator: Adobe Illustrator 26.4.1, SVG Export Plug-In . SVG Version: 6.00 Build 0)  -->
<svg version="1.1" id="Layer_1" xmlns="http://www.w3.org/2000/svg" xmlns:xlink="http://www.w3.org/1999/xlink" x="0px" y="0px"
	 viewBox="0 0 350 350" style="enable-background:new 0 0 350 350;" xml:space="preserve">
<g>
	<path d="M285.32,193.26c-11.02-0.16-18.67,8.13-18.74,20.62c-0.1,17.39,0.03,34.78-0.05,52.17c-0.06,14.08-7.27,21.36-21.45,21.38
		c-54,0.07-108,0.08-162.01,0c-14.04-0.02-21.34-7.42-21.35-21.56c-0.07-54.1-0.06-108.21,0-162.31
		c0.02-14.42,6.99-21.43,21.18-21.5c16.81-0.08,33.62,0.12,50.42-0.08c11.83-0.14,20.08-8.01,20.1-18.6
		c0.03-10.61-8.06-18.44-20.04-18.62c-17.63-0.26-35.28-0.56-52.89,0.08c-31.26,1.14-55.06,24.49-55.24,54.59
		c-0.35,56.86-0.33,113.73,0.04,170.59c0.13,19.58,9.26,35.07,25.84,45.42c6.17,3.85,13.5,5.85,20.29,8.69
		c62.29,0,124.57,0,186.86,0c0.64-0.47,1.22-1.15,1.94-1.37c28.75-8.77,43-27.43,43.21-56.94c0.13-17.39,0.14-34.78-0.03-52.17
		C303.29,201.39,296.01,193.42,285.32,193.26z"/>
	<path d="M322.87,56.93c0-12.43-7.42-23.68-19.12-28.44c-12.9-5.25-24.34-2.41-34.1,7.19c-40.29,39.63-80.55,79.3-120.69,119.08
		c-2.87,2.84-5.32,6.41-7.02,10.07c-7.32,15.73-14.67,31.47-21.13,47.56c-1.56,3.89-1.5,10.91,0.93,13.23
		c2.47,2.36,9.31,2.08,13.3,0.53c14.08-5.49,27.85-11.83,41.54-18.25c5.42-2.54,11.15-5.3,15.36-9.39
		c40.7-39.61,81.29-79.33,121.38-119.56C318.72,73.51,323.58,57.31,322.87,56.93z"/>
</g>
</svg>
