<?xml version="1.0" encoding="utf-8"?>
<!-- Generator: Adobe Illustrator 26.4.1, SVG Export Plug-In . SVG Version: 6.00 Build 0)  -->
<svg version="1.1" id="Layer_1" xmlns="http://www.w3.org/2000/svg" xmlns:xlink="http://www.w3.org/1999/xlink" x="0px" y="0px"
	 viewBox="0 0 350 350" style="enable-background:new 0 0 350 350;" xml:space="preserve">
<g>
	<path d="M218.75,143.75v37.5c0.01,8.28,3.3,16.23,9.16,22.09c5.86,5.86,13.8,9.15,22.09,9.16h12.5c8.28-0.01,16.23-3.31,22.09-9.16
		c5.86-5.86,9.15-13.8,9.16-22.09v-37.5c-0.01-8.28-3.31-16.23-9.16-22.09c-5.86-5.86-13.8-9.15-22.09-9.16H250
		c-8.28,0.01-16.23,3.31-22.09,9.16C222.05,127.52,218.76,135.47,218.75,143.75z M231.25,143.75c0-4.97,1.98-9.74,5.49-13.26
		c3.52-3.52,8.29-5.49,13.26-5.49h12.5c4.97,0,9.74,1.98,13.26,5.49c3.52,3.52,5.49,8.28,5.49,13.26V150h-16.16l-10.67-10.67
		c-2.44-2.44-6.4-2.44-8.84,0L234.91,150h-3.66V143.75z M231.25,162.5h6.25c1.66,0,3.25-0.66,4.42-1.83l8.08-8.08l8.08,8.08
		c1.17,1.17,2.76,1.83,4.42,1.83h18.75v18.75c0,4.97-1.98,9.74-5.49,13.26c-3.52,3.52-8.28,5.49-13.26,5.49H250
		c-4.97,0-9.74-1.98-13.26-5.49c-3.52-3.52-5.49-8.28-5.49-13.26V162.5z"/>
	<path d="M312.17,231.58c-8.2-8.2-19.32-12.82-30.92-12.83c-2.56,0-4.86,1.55-5.81,3.93l-19.19,47.99l-19.19-47.99
		c-0.95-2.38-3.25-3.93-5.81-3.93c-11.6,0.01-22.72,4.63-30.92,12.83c-8.2,8.2-12.82,19.32-12.83,30.92v43.75
		c0,4.97,1.98,9.74,5.49,13.26c3.52,3.52,8.28,5.49,13.26,5.49h100c4.97,0,9.74-1.98,13.26-5.49c3.52-3.52,5.49-8.29,5.49-13.26
		V262.5C324.98,250.9,320.37,239.78,312.17,231.58z M250,312.5h-43.75c-1.66,0-3.25-0.66-4.42-1.83c-1.17-1.17-1.83-2.76-1.83-4.42
		V262.5c0.01-7.57,2.76-14.88,7.75-20.58c4.99-5.7,11.87-9.39,19.38-10.4l17.22,43.04L225,264.89V250h-12.5v18.75
		c-0.01,2.38,1.33,4.56,3.46,5.62L250,291.4V312.5z M312.5,306.25c0,1.66-0.66,3.25-1.83,4.42s-2.76,1.83-4.42,1.83H262.5v-21.1
		l34.05-17.02c2.13-1.06,3.47-3.25,3.45-5.62V250h-12.5l0,14.89l-19.34,9.67l17.21-43.04c7.5,1.01,14.39,4.71,19.37,10.4
		c4.99,5.7,7.74,13.01,7.75,20.58V306.25z"/>
	<path d="M39.33,310.67c-1.17-1.17-1.83-2.76-1.83-4.42V87.5h43.75c1.66,0,3.25-0.66,4.42-1.83s1.83-2.76,1.83-4.42l0-43.75h131.25
		c1.66,0,3.25,0.66,4.42,1.83c1.17,1.17,1.83,2.76,1.83,4.42V100h12.5V43.75c0-4.97-1.98-9.74-5.49-13.26
		c-3.52-3.52-8.28-5.49-13.26-5.49H81.25c-1.66,0-3.25,0.66-4.42,1.83l-50,50C25.66,78,25,79.59,25,81.25v225
		c0,4.97,1.98,9.74,5.49,13.26c3.52,3.52,8.29,5.49,13.26,5.49H175l0-12.5H43.75C42.09,312.5,40.5,311.84,39.33,310.67z M75,46.34
		V75H46.34L75,46.34z"/>
	<path d="M106.25,112.5c0-1.66-0.66-3.25-1.83-4.42c-1.17-1.17-2.76-1.83-4.42-1.83H62.5c-3.45,0-6.25,2.8-6.25,6.25V150
		c0,3.45,2.8,6.25,6.25,6.25H100v0c1.66,0,3.25-0.66,4.42-1.83s1.83-2.76,1.83-4.42V112.5z M68.75,143.75l0-25h25l0,25H68.75z"/>
	<path d="M106.25,181.25c0-1.66-0.66-3.25-1.83-4.42S101.66,175,100,175H62.5c-3.45,0-6.25,2.8-6.25,6.25v37.5
		c0,3.45,2.8,6.25,6.25,6.25H100c1.66,0,3.25-0.66,4.42-1.83c1.17-1.17,1.83-2.76,1.83-4.42V181.25z M68.75,212.5l0-25h25l0,25
		H68.75z"/>
	<path d="M100,243.75H62.5c-3.45,0-6.25,2.8-6.25,6.25v37.5c0,3.45,2.8,6.25,6.25,6.25H100c1.66,0,3.25-0.66,4.42-1.83
		s1.83-2.76,1.83-4.42V250c0-1.66-0.66-3.25-1.83-4.42S101.66,243.75,100,243.75z M68.75,281.25l0-25h25l0,25H68.75z"/>
	<rect x="125" y="112.5" width="81.25" height="12.5"/>
	<rect x="125" y="137.5" width="81.25" height="12.5"/>
	<rect x="125" y="181.25" width="81.25" height="12.5"/>
	<rect x="125" y="206.25" width="68.75" height="12.5"/>
	<rect x="125" y="250" width="50" height="12.5"/>
	<rect x="125" y="275" width="50" height="12.5"/>
</g>
</svg>
