<?xml version="1.0" encoding="utf-8"?>
<!-- Generator: Adobe Illustrator 26.4.1, SVG Export Plug-In . SVG Version: 6.00 Build 0)  -->
<svg version="1.1" id="Layer_1" xmlns="http://www.w3.org/2000/svg" xmlns:xlink="http://www.w3.org/1999/xlink" x="0px" y="0px"
	 viewBox="0 0 350 350" style="enable-background:new 0 0 350 350;" xml:space="preserve">
<g>
	<path d="M324.71,211.72L298.28,82.44c-1.56-7.55-8.91-12.42-16.5-10.88L36.18,121.79c-7.55,1.54-12.44,8.94-10.89,16.49
		l26.44,129.27c0.74,3.67,2.88,6.82,5.98,8.86c2.29,1.52,4.94,2.32,7.65,2.32c0.91,0,1.87-0.1,2.84-0.29l245.62-50.22
		C321.37,226.67,326.26,219.27,324.71,211.72z M66.02,263.83L39.89,136.09l244.09-49.92l26.13,127.74L66.02,263.83z"/>
	<path d="M278.52,128.3c-1.63-1.08-3.65-1.46-5.54-1.07c-4.95,1.06-10.03,0.06-14.29-2.77c-4.25-2.8-7.13-7.08-8.15-12.06
		c-0.82-3.99-4.58-6.54-8.7-5.74L86.72,138.39c-1.94,0.4-3.61,1.52-4.69,3.15c-1.08,1.64-1.45,3.61-1.06,5.55
		c1.02,4.97,0.03,10.04-2.77,14.29c-2.8,4.24-7.08,7.13-12.06,8.14c-4.03,0.83-6.56,4.65-5.73,8.7l7.93,38.8
		c0.83,4.03,4.66,6.53,8.69,5.74c4.96-1.01,10.04-0.03,14.29,2.77c4.25,2.8,7.13,7.08,8.15,12.05c0.4,1.95,1.52,3.61,3.16,4.69
		c1.2,0.79,2.6,1.21,4.02,1.21c0.5,0,1.01-0.05,1.52-0.15l155.11-31.72c1.95-0.39,3.61-1.51,4.68-3.14c1.1-1.64,1.48-3.62,1.07-5.56
		c-2.09-10.28,4.56-20.35,14.84-22.44c1.93-0.4,3.59-1.52,4.67-3.15s1.45-3.59,1.06-5.55l-7.93-38.79
		C281.3,131.05,280.17,129.38,278.52,128.3z M253.93,198.46l-142.3,29.1c-5.3-11.76-17.23-19.64-30.15-19.9l-5.31-25.89
		c11.82-5.32,19.67-17.21,19.93-30.17l142.24-29.08c5.3,11.76,17.23,19.64,30.15,19.9l5.3,25.92
		C262.01,173.68,254.18,185.55,253.93,198.46z"/>
	<path d="M193.52,146.8c-7.54-4.96-16.5-6.69-25.29-4.88c-18.23,3.74-30.03,21.61-26.32,39.85c1.79,8.82,6.94,16.42,14.48,21.4
		c5.56,3.67,11.97,5.61,18.56,5.61c2.29,0,4.58-0.23,6.8-0.68c8.82-1.8,16.42-6.95,21.4-14.49c4.98-7.53,6.72-16.53,4.92-25.35
		C206.27,159.4,201.1,151.79,193.52,146.8z M190.86,185.48c-2.8,4.24-7.08,7.13-12.05,8.14c-4.94,1.05-10.01,0.07-14.28-2.77
		c-4.25-2.8-7.13-7.08-8.15-12.04c-1.02-4.97-0.03-10.05,2.77-14.29c2.79-4.24,7.06-7.13,12.03-8.15c1.27-0.25,2.57-0.39,3.84-0.39
		c3.7,0,7.31,1.09,10.45,3.16c4.26,2.81,7.14,7.09,8.16,12.04C194.64,176.15,193.66,181.22,190.86,185.48z"/>
</g>
</svg>
